<svg xmlns="http://www.w3.org/2000/svg" viewBox="0 0 1600 1600">
<g fill="#06b6d4" fill-opacity=".1" filter="url(#a)">
<path d="m250 578 824-278h288v318l-194 74-561-72a1 1 0 0 1-355 59z"/>
</g>
<g fill="#f59e0b" fill-opacity=".2" filter="url(#b)">
<path d="m120 1100 659-222h230v254l-155 59-449-58a1 1 90 01-284 47z"/>
</g>
<g fill="#ef4444" fill-opacity=".2" filter="url(#c)">
<path d="m116 179q443 502-187 931 212-643 161-926z"/>
</g>
<g fill="#ef4444" fill-opacity=".2" filter="url(#d)">
<path d="m202 1212q602-382 899 262z"/>
</g>
<g fill="#f59e0b" fill-opacity=".3" filter="url(#e)">
<path d="m1548 854q112 286-503 99l-52-216s182 148 299 16q171-132 255 101z"/>
</g>
<defs>
<filter id="a" width="1558" height="837" x="225" y="145" color-interpolation-filters="sRGB" filterUnits="userSpaceOnUse">
<feFlood flood-opacity="0" result="f"/>
<feBlend in="SourceGraphic" in2="f" result="shape"/>
<feGaussianBlur stdDeviation="50"/>
</filter>
<filter id="b" width="1051" height="599" x="65" y="776" color-interpolation-filters="sRGB" filterUnits="userSpaceOnUse">
<feFlood flood-opacity="0" result="f"/>
<feBlend in="SourceGraphic" in2="f" result="shape"/>
<feGaussianBlur stdDeviation="50"/>
</filter>
<filter id="c" width="740" height="1289" x="-250" y="0" color-interpolation-filters="sRGB" filterUnits="userSpaceOnUse">
<feFlood flood-opacity="0" result="f"/>
<feBlend in="SourceGraphic" in2="f" result="shape"/>
<feGaussianBlur stdDeviation="50"/>
</filter>
<filter id="d" width="1270" height="789" x="10" y="864" color-interpolation-filters="sRGB" filterUnits="userSpaceOnUse">
<feFlood flood-opacity="0" result="f"/>
<feBlend in="SourceGraphic" in2="f" result="shape"/>
<feGaussianBlur stdDeviation="50"/>
</filter>
<filter id="e" width="862" height="801" x="846" y="554" color-interpolation-filters="sRGB" filterUnits="userSpaceOnUse">
<feFlood flood-opacity="0" result="f"/>
<feBlend in="SourceGraphic" in2="f" result="shape"/>
<feGaussianBlur stdDeviation="90"/>
</filter>
</defs>
</svg>
