<svg width="428" height="1383" viewBox="0 0 428 1383" fill="none" xmlns="http://www.w3.org/2000/svg">
<g filter="url(#filter0_f_1041_170)">
<path d="M71.3849 453.829C149.245 740.56 -23.9137 914.068 -39.3824 940.717C-23.4351 861.081 38.6157 423.498 15.6999 359.941C21.0836 352.443 44.6226 355.273 71.3849 453.829Z" fill="#FFA3A3" fill-opacity="0.68"/>
</g>
<g filter="url(#filter1_f_1041_170)">
<path d="M9.59962 1054.11C265.019 914.838 378.619 1236.95 398.136 1265.9C334.183 1235.26 -21.9811 1114.1 -79.6496 1155.41C-84.9489 1145.37 -78.1943 1101.98 9.59962 1054.11Z" fill="#FFA3A3" fill-opacity="0.66"/>
</g>
<g filter="url(#filter2_f_1041_170)">
<path d="M541.006 517.661C662.63 774.819 251.284 670.109 240.241 671.233L167.279 467.551C167.279 467.551 310.287 589.881 360.152 448.779C410.017 307.678 508.144 448.18 541.006 517.661Z" fill="#FFDAAE"/>
</g>
<g filter="url(#filter3_f_1041_170)">
<path d="M289.953 62H453.203L505 156.049L467.895 246.096L330.737 278.112L-18.9998 195.888L289.953 62Z" fill="#93C4C4" fill-opacity="0.22"/>
<path d="M-18.9998 195.888H144.25L196.047 289.937L158.943 379.983L21.7849 412L-19 329.775L-18.9998 195.888Z" fill="#93C4C4" fill-opacity="0.22"/>
</g>
<defs>
<filter id="filter0_f_1041_170" x="-150.73" y="246.017" width="353.493" height="806.047" filterUnits="userSpaceOnUse" color-interpolation-filters="sRGB">
<feFlood flood-opacity="0" result="BackgroundImageFix"/>
<feBlend mode="normal" in="SourceGraphic" in2="BackgroundImageFix" result="shape"/>
<feGaussianBlur stdDeviation="55.6736" result="effect1_foregroundBlur_1041_170"/>
</filter>
<filter id="filter1_f_1041_170" x="-192.336" y="907.989" width="701.819" height="469.255" filterUnits="userSpaceOnUse" color-interpolation-filters="sRGB">
<feFlood flood-opacity="0" result="BackgroundImageFix"/>
<feBlend mode="normal" in="SourceGraphic" in2="BackgroundImageFix" result="shape"/>
<feGaussianBlur stdDeviation="55.6736" result="effect1_foregroundBlur_1041_170"/>
</filter>
<filter id="filter2_f_1041_170" x="76.3048" y="297.261" width="578.14" height="485.107" filterUnits="userSpaceOnUse" color-interpolation-filters="sRGB">
<feFlood flood-opacity="0" result="BackgroundImageFix"/>
<feBlend mode="normal" in="SourceGraphic" in2="BackgroundImageFix" result="shape"/>
<feGaussianBlur stdDeviation="45.4873" result="effect1_foregroundBlur_1041_170"/>
</filter>
<filter id="filter3_f_1041_170" x="-80.894" y="0.106003" width="647.788" height="473.788" filterUnits="userSpaceOnUse" color-interpolation-filters="sRGB">
<feFlood flood-opacity="0" result="BackgroundImageFix"/>
<feBlend mode="normal" in="SourceGraphic" in2="BackgroundImageFix" result="shape"/>
<feGaussianBlur stdDeviation="30.947" result="effect1_foregroundBlur_1041_170"/>
</filter>
</defs>
</svg>
